# xmcd CD database file
#
# Track frame offsets:
#	150
#	34317
#	65667
#	90227
#	125297
#	167950
#
# Disc length: 2450 seconds
#
# Revision: 0
# Processed by: cddbd v1.5.1PL0 Copyright (c) Steve Scherf et al.
# Submitted via: CDex 1.51
#
DISCID=4a099006
DTITLE=Malcolm Harrison - Freefall
DYEAR=1993
DGENRE=New Age
TTITLE0=Guitar down
TTITLE1=Celeste
TTITLE2=Night flight to Berlin
TTITLE3=Sky castles
TTITLE4=Freefall
TTITLE5=Adventures of a snow flake
EXTD=YEAR: 1993
EXTT0=
EXTT1=
EXTT2=
EXTT3=
EXTT4=
EXTT5=
PLAYORDER=
